<mxfile host="65bd71144e" modified="2020-11-12T22:52:31.606Z" agent="5.0 (X11; Linux x86_64) AppleWebKit/537.36 (KHTML, like Gecko) Code/1.49.1 Chrome/83.0.4103.122 Electron/9.2.1 Safari/537.36" etag="os2NC_X4nAkIsYkZ-NJY" version="13.6.5">
    <diagram id="5bkMZD30vewf3lm7BBEv" name="Page-1">
        <mxGraphModel dx="2369" dy="1774" grid="1" gridSize="10" guides="1" tooltips="1" connect="1" arrows="1" fold="1" page="1" pageScale="1" pageWidth="827" pageHeight="1169" math="0" shadow="0">
            <root>
                <mxCell id="0"/>
                <mxCell id="1" parent="0"/>
                <mxCell id="4RvHICBWk5gI1mkjCIUd-9" value="Adapter" style="swimlane;fontStyle=1;align=center;verticalAlign=top;childLayout=stackLayout;horizontal=1;startSize=26;horizontalStack=0;resizeParent=1;resizeParentMax=0;resizeLast=0;collapsible=1;marginBottom=0;" parent="1" vertex="1">
                    <mxGeometry x="-70" y="50" width="250" height="182" as="geometry"/>
                </mxCell>
                <mxCell id="wTWjqsk3FrmvfJP6N0VC-1" value="#adapt:Mercancia" style="text;strokeColor=none;fillColor=none;align=left;verticalAlign=top;spacingLeft=4;spacingRight=4;overflow=hidden;rotatable=0;points=[[0,0.5],[1,0.5]];portConstraint=eastwest;" parent="4RvHICBWk5gI1mkjCIUd-9" vertex="1">
                    <mxGeometry y="26" width="250" height="26" as="geometry"/>
                </mxCell>
                <mxCell id="vkTqdkaM0bphPuaGX7iE-1" value="#indice:int" style="text;strokeColor=none;fillColor=none;align=left;verticalAlign=top;spacingLeft=4;spacingRight=4;overflow=hidden;rotatable=0;points=[[0,0.5],[1,0.5]];portConstraint=eastwest;" vertex="1" parent="4RvHICBWk5gI1mkjCIUd-9">
                    <mxGeometry y="52" width="250" height="26" as="geometry"/>
                </mxCell>
                <mxCell id="4RvHICBWk5gI1mkjCIUd-10" value="#tipoSupermenu:TipoProducto" style="text;strokeColor=none;fillColor=none;align=left;verticalAlign=top;spacingLeft=4;spacingRight=4;overflow=hidden;rotatable=0;points=[[0,0.5],[1,0.5]];portConstraint=eastwest;" parent="4RvHICBWk5gI1mkjCIUd-9" vertex="1">
                    <mxGeometry y="78" width="250" height="26" as="geometry"/>
                </mxCell>
                <mxCell id="4RvHICBWk5gI1mkjCIUd-11" value="" style="line;strokeWidth=1;fillColor=none;align=left;verticalAlign=middle;spacingTop=-1;spacingLeft=3;spacingRight=3;rotatable=0;labelPosition=right;points=[];portConstraint=eastwest;" parent="4RvHICBWk5gI1mkjCIUd-9" vertex="1">
                    <mxGeometry y="104" width="250" height="8" as="geometry"/>
                </mxCell>
                <mxCell id="4RvHICBWk5gI1mkjCIUd-12" value="+ Adapter()&#10;+ toString(): String&#10;+ buscaHoja(int):Hoja&#10;+rangoHojas()LinkedList&lt;Integer&gt;" style="text;strokeColor=none;fillColor=none;align=left;verticalAlign=top;spacingLeft=4;spacingRight=4;overflow=hidden;rotatable=0;points=[[0,0.5],[1,0.5]];portConstraint=eastwest;" parent="4RvHICBWk5gI1mkjCIUd-9" vertex="1">
                    <mxGeometry y="112" width="250" height="70" as="geometry"/>
                </mxCell>
                <mxCell id="4RvHICBWk5gI1mkjCIUd-16" value="" style="endArrow=diamondThin;endFill=0;endSize=24;html=1;exitX=-0.012;exitY=0.037;exitDx=0;exitDy=0;exitPerimeter=0;entryX=1.002;entryY=0.098;entryDx=0;entryDy=0;entryPerimeter=0;" parent="1" source="4RvHICBWk5gI1mkjCIUd-1" target="4RvHICBWk5gI1mkjCIUd-9" edge="1">
                    <mxGeometry width="160" relative="1" as="geometry">
                        <mxPoint x="190" y="200" as="sourcePoint"/>
                        <mxPoint x="350" y="200" as="targetPoint"/>
                    </mxGeometry>
                </mxCell>
                <mxCell id="4RvHICBWk5gI1mkjCIUd-1" value="Mercancia" style="swimlane;fontStyle=1;align=center;verticalAlign=top;childLayout=stackLayout;horizontal=1;startSize=30;horizontalStack=0;resizeParent=1;resizeParentMax=0;resizeLast=0;collapsible=1;marginBottom=0;" parent="1" vertex="1">
                    <mxGeometry x="320" y="50" width="300" height="300" as="geometry"/>
                </mxCell>
                <mxCell id="4RvHICBWk5gI1mkjCIUd-2" value="+nombre:String&#10;+type:String&#10;+precio:double&#10;+color:String&#10;+material:String" style="text;strokeColor=none;fillColor=none;align=left;verticalAlign=top;spacingLeft=4;spacingRight=4;overflow=hidden;rotatable=0;points=[[0,0.5],[1,0.5]];portConstraint=eastwest;" parent="4RvHICBWk5gI1mkjCIUd-1" vertex="1">
                    <mxGeometry y="30" width="300" height="84" as="geometry"/>
                </mxCell>
                <mxCell id="vkTqdkaM0bphPuaGX7iE-2" value="#indice:int" style="text;strokeColor=none;fillColor=none;align=left;verticalAlign=top;spacingLeft=4;spacingRight=4;overflow=hidden;rotatable=0;points=[[0,0.5],[1,0.5]];portConstraint=eastwest;" vertex="1" parent="4RvHICBWk5gI1mkjCIUd-1">
                    <mxGeometry y="114" width="300" height="26" as="geometry"/>
                </mxCell>
                <mxCell id="4RvHICBWk5gI1mkjCIUd-3" value="" style="line;strokeWidth=1;fillColor=none;align=left;verticalAlign=middle;spacingTop=-1;spacingLeft=3;spacingRight=3;rotatable=0;labelPosition=right;points=[];portConstraint=eastwest;" parent="4RvHICBWk5gI1mkjCIUd-1" vertex="1">
                    <mxGeometry y="140" width="300" height="8" as="geometry"/>
                </mxCell>
                <mxCell id="4RvHICBWk5gI1mkjCIUd-4" value="+ Mercancia(int,String,String,double,String,String)" style="text;strokeColor=none;fillColor=none;align=left;verticalAlign=top;spacingLeft=4;spacingRight=4;overflow=hidden;rotatable=0;points=[[0,0.5],[1,0.5]];portConstraint=eastwest;" parent="4RvHICBWk5gI1mkjCIUd-1" vertex="1">
                    <mxGeometry y="148" width="300" height="32" as="geometry"/>
                </mxCell>
                <mxCell id="AF6uCojrH6PkhH3pW_Yk-6" value="+ leerEtiqueta():String" style="text;strokeColor=none;fillColor=none;align=left;verticalAlign=top;spacingLeft=4;spacingRight=4;overflow=hidden;rotatable=0;points=[[0,0.5],[1,0.5]];portConstraint=eastwest;" parent="4RvHICBWk5gI1mkjCIUd-1" vertex="1">
                    <mxGeometry y="180" width="300" height="30" as="geometry"/>
                </mxCell>
                <mxCell id="AF6uCojrH6PkhH3pW_Yk-7" value="+ encuentra(int):MenuItem" style="text;strokeColor=none;fillColor=none;align=left;verticalAlign=top;spacingLeft=4;spacingRight=4;overflow=hidden;rotatable=0;points=[[0,0.5],[1,0.5]];portConstraint=eastwest;" parent="4RvHICBWk5gI1mkjCIUd-1" vertex="1">
                    <mxGeometry y="210" width="300" height="30" as="geometry"/>
                </mxCell>
                <mxCell id="AF6uCojrH6PkhH3pW_Yk-8" value="+ getIndicesMercancias(int);integer[]" style="text;strokeColor=none;fillColor=none;align=left;verticalAlign=top;spacingLeft=4;spacingRight=4;overflow=hidden;rotatable=0;points=[[0,0.5],[1,0.5]];portConstraint=eastwest;" parent="4RvHICBWk5gI1mkjCIUd-1" vertex="1">
                    <mxGeometry y="240" width="300" height="30" as="geometry"/>
                </mxCell>
                <mxCell id="wTWjqsk3FrmvfJP6N0VC-18" value="+ getIndice();int" style="text;strokeColor=none;fillColor=none;align=left;verticalAlign=top;spacingLeft=4;spacingRight=4;overflow=hidden;rotatable=0;points=[[0,0.5],[1,0.5]];portConstraint=eastwest;" parent="4RvHICBWk5gI1mkjCIUd-1" vertex="1">
                    <mxGeometry y="270" width="300" height="30" as="geometry"/>
                </mxCell>
                <mxCell id="wTWjqsk3FrmvfJP6N0VC-16" value="" style="endArrow=block;dashed=1;endFill=0;endSize=12;html=1;exitX=0.323;exitY=-0.017;exitDx=0;exitDy=0;exitPerimeter=0;" parent="1" source="4RvHICBWk5gI1mkjCIUd-9" target="wTWjqsk3FrmvfJP6N0VC-14" edge="1">
                    <mxGeometry width="160" relative="1" as="geometry">
                        <mxPoint x="-90" y="10" as="sourcePoint"/>
                        <mxPoint x="70" y="10" as="targetPoint"/>
                    </mxGeometry>
                </mxCell>
                <mxCell id="wTWjqsk3FrmvfJP6N0VC-11" value="&lt;&lt;interface&gt;&gt;&#10;Hoja&#10;" style="swimlane;fontStyle=1;align=center;verticalAlign=top;childLayout=stackLayout;horizontal=1;startSize=40;horizontalStack=0;resizeParent=1;resizeParentMax=0;resizeLast=0;collapsible=1;marginBottom=0;" parent="1" vertex="1">
                    <mxGeometry x="-70" y="-140" width="160" height="74" as="geometry"/>
                </mxCell>
                <mxCell id="wTWjqsk3FrmvfJP6N0VC-13" value="" style="line;strokeWidth=1;fillColor=none;align=left;verticalAlign=middle;spacingTop=-1;spacingLeft=3;spacingRight=3;rotatable=0;labelPosition=right;points=[];portConstraint=eastwest;" parent="wTWjqsk3FrmvfJP6N0VC-11" vertex="1">
                    <mxGeometry y="40" width="160" height="8" as="geometry"/>
                </mxCell>
                <mxCell id="wTWjqsk3FrmvfJP6N0VC-14" value="+ getEnum():int " style="text;strokeColor=none;fillColor=none;align=left;verticalAlign=top;spacingLeft=4;spacingRight=4;overflow=hidden;rotatable=0;points=[[0,0.5],[1,0.5]];portConstraint=eastwest;" parent="wTWjqsk3FrmvfJP6N0VC-11" vertex="1">
                    <mxGeometry y="48" width="160" height="26" as="geometry"/>
                </mxCell>
            </root>
        </mxGraphModel>
    </diagram>
</mxfile>